<mxfile host="app.diagrams.net" modified="2022-11-04T10:32:09.878Z" agent="5.0 (Windows)" etag="TDLfUEOC5gL78hMPOKIF" version="20.5.1" type="github" pages="6">
  <diagram id="5tbrid-iLjV5ifibn0Md" name="Page-1">
    <mxGraphModel dx="1422" dy="752" grid="1" gridSize="10" guides="1" tooltips="1" connect="1" arrows="1" fold="1" page="1" pageScale="1" pageWidth="827" pageHeight="1169" math="0" shadow="0">
      <root>
        <mxCell id="0" />
        <mxCell id="1" parent="0" />
        <mxCell id="yfFqdcx3PFosb-DJqVoX-1" value="&lt;h1 align=&quot;center&quot;&gt;Code lab 1&lt;/h1&gt;&lt;h1 align=&quot;center&quot;&gt;&amp;nbsp;Blog&lt;/h1&gt;" style="text;html=1;strokeColor=none;fillColor=none;spacing=5;spacingTop=-20;whiteSpace=wrap;overflow=hidden;rounded=0;align=center;" vertex="1" parent="1">
          <mxGeometry x="300" y="180" width="210" height="90" as="geometry" />
        </mxCell>
        <mxCell id="yfFqdcx3PFosb-DJqVoX-2" value="&lt;b&gt;&lt;font style=&quot;font-size: 14px;&quot;&gt;Objectif #1 : Découvrir la création d&#39;un projet VueJs&lt;br&gt;&lt;/font&gt;&lt;/b&gt;" style="rounded=0;whiteSpace=wrap;html=1;fillColor=#dae8fc;strokeColor=#6c8ebf;shadow=1;" vertex="1" parent="1">
          <mxGeometry x="190" y="310" width="480" height="60" as="geometry" />
        </mxCell>
        <mxCell id="yfFqdcx3PFosb-DJqVoX-4" value="&lt;div&gt;&lt;b&gt;&lt;font style=&quot;font-size: 14px;&quot;&gt;Objectif #2 : Créer une page avec quelques composants simples&lt;/font&gt;&lt;/b&gt;&lt;/div&gt;" style="rounded=0;whiteSpace=wrap;html=1;fillColor=#dae8fc;strokeColor=#6c8ebf;shadow=1;" vertex="1" parent="1">
          <mxGeometry x="190" y="390" width="480" height="60" as="geometry" />
        </mxCell>
        <mxCell id="yfFqdcx3PFosb-DJqVoX-5" value="&lt;div&gt;&lt;b&gt;&lt;font style=&quot;font-size: 14px;&quot;&gt;Objectif #3 : Réaliser ses premières requêtes sur une API&lt;br&gt;&lt;/font&gt;&lt;/b&gt;&lt;/div&gt;" style="rounded=0;whiteSpace=wrap;html=1;fillColor=#dae8fc;strokeColor=#6c8ebf;shadow=1;" vertex="1" parent="1">
          <mxGeometry x="190" y="470" width="480" height="60" as="geometry" />
        </mxCell>
      </root>
    </mxGraphModel>
  </diagram>
  <diagram id="Acr7BiVRrsQCiYwzlsJU" name="Page-2">
    <mxGraphModel dx="1673" dy="885" grid="1" gridSize="10" guides="1" tooltips="1" connect="1" arrows="1" fold="1" page="1" pageScale="1" pageWidth="827" pageHeight="1169" math="0" shadow="0">
      <root>
        <mxCell id="0" />
        <mxCell id="1" parent="0" />
        <mxCell id="Vv4VXDcaHMIJRRI_65GE-8" value="" style="strokeWidth=1;shadow=0;dashed=0;align=center;html=1;shape=mxgraph.mockup.containers.browserWindow;rSize=0;strokeColor=#666666;strokeColor2=#008cff;strokeColor3=#c4c4c4;mainText=,;recursiveResize=0;" vertex="1" parent="1">
          <mxGeometry x="330" y="160" width="440" height="430" as="geometry" />
        </mxCell>
        <mxCell id="Vv4VXDcaHMIJRRI_65GE-9" value="Page 1" style="strokeWidth=1;shadow=0;dashed=0;align=center;html=1;shape=mxgraph.mockup.containers.anchor;fontSize=17;fontColor=#666666;align=left;" vertex="1" parent="Vv4VXDcaHMIJRRI_65GE-8">
          <mxGeometry x="60" y="12" width="110" height="26" as="geometry" />
        </mxCell>
        <mxCell id="Vv4VXDcaHMIJRRI_65GE-10" value="https://www.draw.io" style="strokeWidth=1;shadow=0;dashed=0;align=center;html=1;shape=mxgraph.mockup.containers.anchor;rSize=0;fontSize=17;fontColor=#666666;align=left;" vertex="1" parent="Vv4VXDcaHMIJRRI_65GE-8">
          <mxGeometry x="130" y="60" width="250" height="26" as="geometry" />
        </mxCell>
        <mxCell id="Vv4VXDcaHMIJRRI_65GE-11" value="Create Post" style="text;html=1;strokeColor=none;fillColor=none;align=left;verticalAlign=middle;whiteSpace=wrap;rounded=0;fontSize=28;" vertex="1" parent="Vv4VXDcaHMIJRRI_65GE-8">
          <mxGeometry x="15" y="120" width="200" height="20" as="geometry" />
        </mxCell>
        <mxCell id="Vv4VXDcaHMIJRRI_65GE-12" value="My POST" style="whiteSpace=wrap;html=1;fontSize=28;align=left;" vertex="1" parent="Vv4VXDcaHMIJRRI_65GE-8">
          <mxGeometry x="35" y="175" width="180" height="25" as="geometry" />
        </mxCell>
        <mxCell id="Vv4VXDcaHMIJRRI_65GE-13" value="Submit" style="whiteSpace=wrap;html=1;fontSize=16;align=center;rounded=1;" vertex="1" parent="Vv4VXDcaHMIJRRI_65GE-8">
          <mxGeometry x="35" y="210" width="80" height="25" as="geometry" />
        </mxCell>
        <mxCell id="Vv4VXDcaHMIJRRI_65GE-14" value="Title" style="text;html=1;strokeColor=none;fillColor=none;align=left;verticalAlign=middle;whiteSpace=wrap;rounded=0;fontSize=18;" vertex="1" parent="Vv4VXDcaHMIJRRI_65GE-8">
          <mxGeometry x="35" y="150" width="200" height="20" as="geometry" />
        </mxCell>
        <mxCell id="Vv4VXDcaHMIJRRI_65GE-15" value="" style="strokeWidth=1;shadow=0;dashed=0;align=center;html=1;shape=mxgraph.mockup.containers.browserWindow;rSize=0;strokeColor=#666666;strokeColor2=#008cff;strokeColor3=#c4c4c4;mainText=,;recursiveResize=0;" vertex="1" parent="1">
          <mxGeometry x="950" y="160" width="480" height="430" as="geometry" />
        </mxCell>
        <mxCell id="Vv4VXDcaHMIJRRI_65GE-16" value="Page 1" style="strokeWidth=1;shadow=0;dashed=0;align=center;html=1;shape=mxgraph.mockup.containers.anchor;fontSize=17;fontColor=#666666;align=left;" vertex="1" parent="Vv4VXDcaHMIJRRI_65GE-15">
          <mxGeometry x="60" y="12" width="110" height="26" as="geometry" />
        </mxCell>
        <mxCell id="Vv4VXDcaHMIJRRI_65GE-17" value="https://www.draw.io" style="strokeWidth=1;shadow=0;dashed=0;align=center;html=1;shape=mxgraph.mockup.containers.anchor;rSize=0;fontSize=17;fontColor=#666666;align=left;" vertex="1" parent="Vv4VXDcaHMIJRRI_65GE-15">
          <mxGeometry x="130" y="60" width="250" height="26" as="geometry" />
        </mxCell>
        <mxCell id="Vv4VXDcaHMIJRRI_65GE-18" value="Create Post" style="text;html=1;strokeColor=none;fillColor=none;align=left;verticalAlign=middle;whiteSpace=wrap;rounded=0;fontSize=28;" vertex="1" parent="Vv4VXDcaHMIJRRI_65GE-15">
          <mxGeometry x="20" y="120" width="200" height="20" as="geometry" />
        </mxCell>
        <mxCell id="Vv4VXDcaHMIJRRI_65GE-19" value="" style="whiteSpace=wrap;html=1;fontSize=28;align=left;" vertex="1" parent="Vv4VXDcaHMIJRRI_65GE-15">
          <mxGeometry x="40" y="175" width="180" height="25" as="geometry" />
        </mxCell>
        <mxCell id="Vv4VXDcaHMIJRRI_65GE-20" value="Title" style="text;html=1;strokeColor=none;fillColor=none;align=left;verticalAlign=middle;whiteSpace=wrap;rounded=0;fontSize=18;" vertex="1" parent="Vv4VXDcaHMIJRRI_65GE-15">
          <mxGeometry x="40" y="150" width="200" height="20" as="geometry" />
        </mxCell>
        <mxCell id="Vv4VXDcaHMIJRRI_65GE-21" value="Submit" style="whiteSpace=wrap;html=1;fontSize=16;align=center;rounded=1;" vertex="1" parent="Vv4VXDcaHMIJRRI_65GE-15">
          <mxGeometry x="40" y="210" width="80" height="25" as="geometry" />
        </mxCell>
        <mxCell id="Vv4VXDcaHMIJRRI_65GE-22" value="" style="endArrow=none;html=1;fontSize=16;" edge="1" parent="Vv4VXDcaHMIJRRI_65GE-15">
          <mxGeometry width="50" height="50" relative="1" as="geometry">
            <mxPoint x="20" y="250" as="sourcePoint" />
            <mxPoint x="440" y="250" as="targetPoint" />
          </mxGeometry>
        </mxCell>
        <mxCell id="Vv4VXDcaHMIJRRI_65GE-23" value="" style="rounded=0;whiteSpace=wrap;html=1;fontSize=16;align=center;fillColor=#dae8fc;strokeColor=#6c8ebf;" vertex="1" parent="Vv4VXDcaHMIJRRI_65GE-15">
          <mxGeometry x="25" y="260" width="215" height="160" as="geometry" />
        </mxCell>
        <mxCell id="Vv4VXDcaHMIJRRI_65GE-24" value="My Post" style="text;html=1;strokeColor=none;fillColor=none;align=left;verticalAlign=middle;whiteSpace=wrap;rounded=0;fontSize=28;" vertex="1" parent="Vv4VXDcaHMIJRRI_65GE-15">
          <mxGeometry x="30" y="270" width="200" height="20" as="geometry" />
        </mxCell>
        <mxCell id="Vv4VXDcaHMIJRRI_65GE-25" value="&lt;i&gt;0 comments&lt;/i&gt;" style="text;html=1;strokeColor=none;fillColor=none;align=center;verticalAlign=middle;whiteSpace=wrap;rounded=0;fontSize=16;" vertex="1" parent="Vv4VXDcaHMIJRRI_65GE-15">
          <mxGeometry x="30" y="300" width="100" height="20" as="geometry" />
        </mxCell>
        <mxCell id="Vv4VXDcaHMIJRRI_65GE-26" value="Im a comment" style="whiteSpace=wrap;html=1;fontSize=28;align=left;" vertex="1" parent="Vv4VXDcaHMIJRRI_65GE-15">
          <mxGeometry x="40" y="361" width="180" height="25" as="geometry" />
        </mxCell>
        <mxCell id="Vv4VXDcaHMIJRRI_65GE-27" value="Comment" style="text;html=1;strokeColor=none;fillColor=none;align=left;verticalAlign=middle;whiteSpace=wrap;rounded=0;fontSize=15;" vertex="1" parent="Vv4VXDcaHMIJRRI_65GE-15">
          <mxGeometry x="40" y="342" width="200" height="20" as="geometry" />
        </mxCell>
        <mxCell id="Vv4VXDcaHMIJRRI_65GE-28" value="Submit" style="whiteSpace=wrap;html=1;fontSize=16;align=center;rounded=1;" vertex="1" parent="Vv4VXDcaHMIJRRI_65GE-15">
          <mxGeometry x="40" y="390" width="80" height="25" as="geometry" />
        </mxCell>
        <mxCell id="Vv4VXDcaHMIJRRI_65GE-29" value="" style="strokeWidth=1;shadow=0;dashed=0;align=center;html=1;shape=mxgraph.mockup.containers.browserWindow;rSize=0;strokeColor=#666666;strokeColor2=#008cff;strokeColor3=#c4c4c4;mainText=,;recursiveResize=0;" vertex="1" parent="1">
          <mxGeometry x="1490" y="160" width="480" height="430" as="geometry" />
        </mxCell>
        <mxCell id="Vv4VXDcaHMIJRRI_65GE-30" value="Page 1" style="strokeWidth=1;shadow=0;dashed=0;align=center;html=1;shape=mxgraph.mockup.containers.anchor;fontSize=17;fontColor=#666666;align=left;" vertex="1" parent="Vv4VXDcaHMIJRRI_65GE-29">
          <mxGeometry x="60" y="12" width="110" height="26" as="geometry" />
        </mxCell>
        <mxCell id="Vv4VXDcaHMIJRRI_65GE-31" value="https://www.draw.io" style="strokeWidth=1;shadow=0;dashed=0;align=center;html=1;shape=mxgraph.mockup.containers.anchor;rSize=0;fontSize=17;fontColor=#666666;align=left;" vertex="1" parent="Vv4VXDcaHMIJRRI_65GE-29">
          <mxGeometry x="130" y="60" width="250" height="26" as="geometry" />
        </mxCell>
        <mxCell id="Vv4VXDcaHMIJRRI_65GE-32" value="Create Post" style="text;html=1;strokeColor=none;fillColor=none;align=left;verticalAlign=middle;whiteSpace=wrap;rounded=0;fontSize=28;" vertex="1" parent="Vv4VXDcaHMIJRRI_65GE-29">
          <mxGeometry x="20" y="120" width="200" height="20" as="geometry" />
        </mxCell>
        <mxCell id="Vv4VXDcaHMIJRRI_65GE-33" value="" style="whiteSpace=wrap;html=1;fontSize=28;align=left;" vertex="1" parent="Vv4VXDcaHMIJRRI_65GE-29">
          <mxGeometry x="40" y="175" width="180" height="25" as="geometry" />
        </mxCell>
        <mxCell id="Vv4VXDcaHMIJRRI_65GE-34" value="Title" style="text;html=1;strokeColor=none;fillColor=none;align=left;verticalAlign=middle;whiteSpace=wrap;rounded=0;fontSize=18;" vertex="1" parent="Vv4VXDcaHMIJRRI_65GE-29">
          <mxGeometry x="40" y="150" width="200" height="20" as="geometry" />
        </mxCell>
        <mxCell id="Vv4VXDcaHMIJRRI_65GE-35" value="Submit" style="whiteSpace=wrap;html=1;fontSize=16;align=center;rounded=1;" vertex="1" parent="Vv4VXDcaHMIJRRI_65GE-29">
          <mxGeometry x="40" y="210" width="80" height="25" as="geometry" />
        </mxCell>
        <mxCell id="Vv4VXDcaHMIJRRI_65GE-36" value="" style="endArrow=none;html=1;fontSize=16;" edge="1" parent="Vv4VXDcaHMIJRRI_65GE-29">
          <mxGeometry width="50" height="50" relative="1" as="geometry">
            <mxPoint x="20" y="240" as="sourcePoint" />
            <mxPoint x="440" y="240" as="targetPoint" />
          </mxGeometry>
        </mxCell>
        <mxCell id="Vv4VXDcaHMIJRRI_65GE-37" value="" style="rounded=0;whiteSpace=wrap;html=1;fontSize=16;align=center;fillColor=#dae8fc;strokeColor=#6c8ebf;" vertex="1" parent="Vv4VXDcaHMIJRRI_65GE-29">
          <mxGeometry x="25" y="250" width="215" height="170" as="geometry" />
        </mxCell>
        <mxCell id="Vv4VXDcaHMIJRRI_65GE-38" value="My Post" style="text;html=1;strokeColor=none;fillColor=none;align=left;verticalAlign=middle;whiteSpace=wrap;rounded=0;fontSize=28;" vertex="1" parent="Vv4VXDcaHMIJRRI_65GE-29">
          <mxGeometry x="30" y="260" width="200" height="20" as="geometry" />
        </mxCell>
        <mxCell id="Vv4VXDcaHMIJRRI_65GE-39" value="&lt;i&gt;1 comments&lt;/i&gt;" style="text;html=1;strokeColor=none;fillColor=none;align=center;verticalAlign=middle;whiteSpace=wrap;rounded=0;fontSize=16;" vertex="1" parent="Vv4VXDcaHMIJRRI_65GE-29">
          <mxGeometry x="30" y="285" width="100" height="20" as="geometry" />
        </mxCell>
        <mxCell id="Vv4VXDcaHMIJRRI_65GE-40" value="&lt;ul&gt;&lt;li&gt;Im a comment!&lt;/li&gt;&lt;/ul&gt;" style="text;html=1;strokeColor=none;fillColor=none;align=left;verticalAlign=middle;whiteSpace=wrap;rounded=0;fontSize=18;" vertex="1" parent="Vv4VXDcaHMIJRRI_65GE-29">
          <mxGeometry x="40" y="310" width="200" height="20" as="geometry" />
        </mxCell>
        <mxCell id="Vv4VXDcaHMIJRRI_65GE-41" value="" style="whiteSpace=wrap;html=1;fontSize=28;align=left;" vertex="1" parent="Vv4VXDcaHMIJRRI_65GE-29">
          <mxGeometry x="32.5" y="359" width="180" height="25" as="geometry" />
        </mxCell>
        <mxCell id="Vv4VXDcaHMIJRRI_65GE-42" value="Comment" style="text;html=1;strokeColor=none;fillColor=none;align=left;verticalAlign=middle;whiteSpace=wrap;rounded=0;fontSize=15;" vertex="1" parent="Vv4VXDcaHMIJRRI_65GE-29">
          <mxGeometry x="32.5" y="340" width="200" height="20" as="geometry" />
        </mxCell>
        <mxCell id="Vv4VXDcaHMIJRRI_65GE-43" value="Submit" style="whiteSpace=wrap;html=1;fontSize=16;align=center;rounded=1;" vertex="1" parent="Vv4VXDcaHMIJRRI_65GE-29">
          <mxGeometry x="32.5" y="388" width="80" height="25" as="geometry" />
        </mxCell>
        <mxCell id="Vv4VXDcaHMIJRRI_65GE-44" value="" style="strokeWidth=1;shadow=0;dashed=0;align=center;html=1;shape=mxgraph.mockup.containers.browserWindow;rSize=0;strokeColor=#666666;strokeColor2=#008cff;strokeColor3=#c4c4c4;mainText=,;recursiveResize=0;" vertex="1" parent="1">
          <mxGeometry x="2010" y="160" width="480" height="430" as="geometry" />
        </mxCell>
        <mxCell id="Vv4VXDcaHMIJRRI_65GE-45" value="Page 1" style="strokeWidth=1;shadow=0;dashed=0;align=center;html=1;shape=mxgraph.mockup.containers.anchor;fontSize=17;fontColor=#666666;align=left;" vertex="1" parent="Vv4VXDcaHMIJRRI_65GE-44">
          <mxGeometry x="60" y="12" width="110" height="26" as="geometry" />
        </mxCell>
        <mxCell id="Vv4VXDcaHMIJRRI_65GE-46" value="https://www.draw.io" style="strokeWidth=1;shadow=0;dashed=0;align=center;html=1;shape=mxgraph.mockup.containers.anchor;rSize=0;fontSize=17;fontColor=#666666;align=left;" vertex="1" parent="Vv4VXDcaHMIJRRI_65GE-44">
          <mxGeometry x="130" y="60" width="250" height="26" as="geometry" />
        </mxCell>
        <mxCell id="Vv4VXDcaHMIJRRI_65GE-47" value="Create Post" style="text;html=1;strokeColor=none;fillColor=none;align=left;verticalAlign=middle;whiteSpace=wrap;rounded=0;fontSize=28;" vertex="1" parent="Vv4VXDcaHMIJRRI_65GE-44">
          <mxGeometry x="20" y="120" width="200" height="20" as="geometry" />
        </mxCell>
        <mxCell id="Vv4VXDcaHMIJRRI_65GE-48" value="" style="whiteSpace=wrap;html=1;fontSize=28;align=left;" vertex="1" parent="Vv4VXDcaHMIJRRI_65GE-44">
          <mxGeometry x="40" y="175" width="180" height="25" as="geometry" />
        </mxCell>
        <mxCell id="Vv4VXDcaHMIJRRI_65GE-49" value="Title" style="text;html=1;strokeColor=none;fillColor=none;align=left;verticalAlign=middle;whiteSpace=wrap;rounded=0;fontSize=18;" vertex="1" parent="Vv4VXDcaHMIJRRI_65GE-44">
          <mxGeometry x="40" y="150" width="200" height="20" as="geometry" />
        </mxCell>
        <mxCell id="Vv4VXDcaHMIJRRI_65GE-50" value="Submit" style="whiteSpace=wrap;html=1;fontSize=16;align=center;rounded=1;" vertex="1" parent="Vv4VXDcaHMIJRRI_65GE-44">
          <mxGeometry x="40" y="210" width="80" height="25" as="geometry" />
        </mxCell>
        <mxCell id="Vv4VXDcaHMIJRRI_65GE-51" value="" style="endArrow=none;html=1;fontSize=16;" edge="1" parent="Vv4VXDcaHMIJRRI_65GE-44">
          <mxGeometry width="50" height="50" relative="1" as="geometry">
            <mxPoint x="20" y="240" as="sourcePoint" />
            <mxPoint x="440" y="240" as="targetPoint" />
          </mxGeometry>
        </mxCell>
        <mxCell id="Vv4VXDcaHMIJRRI_65GE-52" value="" style="rounded=0;whiteSpace=wrap;html=1;fontSize=16;align=center;fillColor=#dae8fc;strokeColor=#6c8ebf;" vertex="1" parent="Vv4VXDcaHMIJRRI_65GE-44">
          <mxGeometry x="25" y="250" width="215" height="170" as="geometry" />
        </mxCell>
        <mxCell id="Vv4VXDcaHMIJRRI_65GE-53" value="My Post" style="text;html=1;strokeColor=none;fillColor=none;align=left;verticalAlign=middle;whiteSpace=wrap;rounded=0;fontSize=28;" vertex="1" parent="Vv4VXDcaHMIJRRI_65GE-44">
          <mxGeometry x="30" y="260" width="200" height="20" as="geometry" />
        </mxCell>
        <mxCell id="Vv4VXDcaHMIJRRI_65GE-54" value="&lt;i&gt;1 comments&lt;/i&gt;" style="text;html=1;strokeColor=none;fillColor=none;align=center;verticalAlign=middle;whiteSpace=wrap;rounded=0;fontSize=16;" vertex="1" parent="Vv4VXDcaHMIJRRI_65GE-44">
          <mxGeometry x="30" y="285" width="100" height="20" as="geometry" />
        </mxCell>
        <mxCell id="Vv4VXDcaHMIJRRI_65GE-55" value="&lt;ul&gt;&lt;li&gt;Im a comment!&lt;/li&gt;&lt;/ul&gt;" style="text;html=1;strokeColor=none;fillColor=none;align=left;verticalAlign=middle;whiteSpace=wrap;rounded=0;fontSize=18;" vertex="1" parent="Vv4VXDcaHMIJRRI_65GE-44">
          <mxGeometry x="40" y="310" width="200" height="20" as="geometry" />
        </mxCell>
        <mxCell id="Vv4VXDcaHMIJRRI_65GE-56" value="" style="whiteSpace=wrap;html=1;fontSize=28;align=left;" vertex="1" parent="Vv4VXDcaHMIJRRI_65GE-44">
          <mxGeometry x="32.5" y="359" width="180" height="25" as="geometry" />
        </mxCell>
        <mxCell id="Vv4VXDcaHMIJRRI_65GE-57" value="Comment" style="text;html=1;strokeColor=none;fillColor=none;align=left;verticalAlign=middle;whiteSpace=wrap;rounded=0;fontSize=15;" vertex="1" parent="Vv4VXDcaHMIJRRI_65GE-44">
          <mxGeometry x="32.5" y="340" width="200" height="20" as="geometry" />
        </mxCell>
        <mxCell id="Vv4VXDcaHMIJRRI_65GE-58" value="Submit" style="whiteSpace=wrap;html=1;fontSize=16;align=center;rounded=1;" vertex="1" parent="Vv4VXDcaHMIJRRI_65GE-44">
          <mxGeometry x="32.5" y="388" width="80" height="25" as="geometry" />
        </mxCell>
        <mxCell id="Vv4VXDcaHMIJRRI_65GE-59" value="" style="rounded=0;whiteSpace=wrap;html=1;fontSize=16;align=center;fillColor=#dae8fc;strokeColor=#6c8ebf;" vertex="1" parent="Vv4VXDcaHMIJRRI_65GE-44">
          <mxGeometry x="250" y="250" width="215" height="170" as="geometry" />
        </mxCell>
        <mxCell id="Vv4VXDcaHMIJRRI_65GE-60" value="Post #2" style="text;html=1;strokeColor=none;fillColor=none;align=left;verticalAlign=middle;whiteSpace=wrap;rounded=0;fontSize=28;" vertex="1" parent="Vv4VXDcaHMIJRRI_65GE-44">
          <mxGeometry x="255" y="260" width="200" height="20" as="geometry" />
        </mxCell>
        <mxCell id="Vv4VXDcaHMIJRRI_65GE-61" value="&lt;i&gt;1 comments&lt;/i&gt;" style="text;html=1;strokeColor=none;fillColor=none;align=center;verticalAlign=middle;whiteSpace=wrap;rounded=0;fontSize=16;" vertex="1" parent="Vv4VXDcaHMIJRRI_65GE-44">
          <mxGeometry x="255" y="285" width="100" height="20" as="geometry" />
        </mxCell>
        <mxCell id="Vv4VXDcaHMIJRRI_65GE-62" value="&lt;ul&gt;&lt;li&gt;Im a comment!&lt;/li&gt;&lt;/ul&gt;" style="text;html=1;strokeColor=none;fillColor=none;align=left;verticalAlign=middle;whiteSpace=wrap;rounded=0;fontSize=18;" vertex="1" parent="Vv4VXDcaHMIJRRI_65GE-44">
          <mxGeometry x="265" y="310" width="200" height="20" as="geometry" />
        </mxCell>
        <mxCell id="Vv4VXDcaHMIJRRI_65GE-63" value="" style="whiteSpace=wrap;html=1;fontSize=28;align=left;" vertex="1" parent="Vv4VXDcaHMIJRRI_65GE-44">
          <mxGeometry x="257.5" y="359" width="180" height="25" as="geometry" />
        </mxCell>
        <mxCell id="Vv4VXDcaHMIJRRI_65GE-64" value="Comment" style="text;html=1;strokeColor=none;fillColor=none;align=left;verticalAlign=middle;whiteSpace=wrap;rounded=0;fontSize=15;" vertex="1" parent="Vv4VXDcaHMIJRRI_65GE-44">
          <mxGeometry x="257.5" y="340" width="200" height="20" as="geometry" />
        </mxCell>
        <mxCell id="Vv4VXDcaHMIJRRI_65GE-65" value="Submit" style="whiteSpace=wrap;html=1;fontSize=16;align=center;rounded=1;" vertex="1" parent="Vv4VXDcaHMIJRRI_65GE-44">
          <mxGeometry x="257.5" y="388" width="80" height="25" as="geometry" />
        </mxCell>
      </root>
    </mxGraphModel>
  </diagram>
  <diagram id="eme7Y8Jmc3uIIwnJC7xZ" name="Page-3">
    <mxGraphModel dx="1422" dy="752" grid="1" gridSize="10" guides="1" tooltips="1" connect="1" arrows="1" fold="1" page="1" pageScale="1" pageWidth="827" pageHeight="1169" math="0" shadow="0">
      <root>
        <mxCell id="0" />
        <mxCell id="1" parent="0" />
        <mxCell id="mPNCyKoooVRPQbacEZAI-1" value="&lt;h2&gt;&lt;b&gt;INITIAL SETUP&lt;/b&gt;&lt;/h2&gt;" style="rounded=0;whiteSpace=wrap;html=1;shadow=1;fontSize=14;strokeColor=none;fillColor=none;" vertex="1" parent="1">
          <mxGeometry x="270" y="190" width="300" height="60" as="geometry" />
        </mxCell>
        <mxCell id="mPNCyKoooVRPQbacEZAI-18" style="edgeStyle=orthogonalEdgeStyle;rounded=0;orthogonalLoop=1;jettySize=auto;html=1;exitX=0;exitY=0.25;exitDx=0;exitDy=0;entryX=1;entryY=0.25;entryDx=0;entryDy=0;fontSize=14;" edge="1" parent="1" source="mPNCyKoooVRPQbacEZAI-3" target="mPNCyKoooVRPQbacEZAI-14">
          <mxGeometry relative="1" as="geometry" />
        </mxCell>
        <mxCell id="mPNCyKoooVRPQbacEZAI-3" value="Application VueJS" style="rounded=0;whiteSpace=wrap;html=1;shadow=1;fontSize=14;fillColor=#d5e8d4;strokeColor=#82b366;" vertex="1" parent="1">
          <mxGeometry x="630" y="320" width="160" height="115" as="geometry" />
        </mxCell>
        <mxCell id="mPNCyKoooVRPQbacEZAI-9" value="&lt;div&gt;Récupération des posts/comments&lt;/div&gt;" style="text;html=1;strokeColor=none;fillColor=none;align=center;verticalAlign=middle;whiteSpace=wrap;rounded=0;shadow=1;fontSize=14;" vertex="1" parent="1">
          <mxGeometry x="310" y="400" width="220" height="30" as="geometry" />
        </mxCell>
        <mxCell id="mPNCyKoooVRPQbacEZAI-21" style="edgeStyle=orthogonalEdgeStyle;rounded=0;orthogonalLoop=1;jettySize=auto;html=1;exitX=1;exitY=0.75;exitDx=0;exitDy=0;entryX=0;entryY=0.75;entryDx=0;entryDy=0;fontSize=14;" edge="1" parent="1" source="mPNCyKoooVRPQbacEZAI-14" target="mPNCyKoooVRPQbacEZAI-3">
          <mxGeometry relative="1" as="geometry" />
        </mxCell>
        <mxCell id="mPNCyKoooVRPQbacEZAI-14" value="Server Express" style="rounded=0;whiteSpace=wrap;html=1;shadow=1;fontSize=14;fillColor=#fff2cc;strokeColor=#d6b656;" vertex="1" parent="1">
          <mxGeometry x="80" y="320" width="160" height="115" as="geometry" />
        </mxCell>
        <mxCell id="mPNCyKoooVRPQbacEZAI-15" value="&lt;div&gt;Création des posts/comments&lt;/div&gt;" style="text;html=1;strokeColor=none;fillColor=none;align=center;verticalAlign=middle;whiteSpace=wrap;rounded=0;shadow=1;fontSize=14;" vertex="1" parent="1">
          <mxGeometry x="320" y="320" width="220" height="30" as="geometry" />
        </mxCell>
      </root>
    </mxGraphModel>
  </diagram>
  <diagram id="NTG6DrxfLSN8ORgzrBUZ" name="Page-4">
    <mxGraphModel dx="1673" dy="885" grid="1" gridSize="10" guides="1" tooltips="1" connect="1" arrows="1" fold="1" page="1" pageScale="1" pageWidth="827" pageHeight="1169" math="0" shadow="0">
      <root>
        <mxCell id="0" />
        <mxCell id="1" parent="0" />
        <mxCell id="fTo_FPvQdEcXw-2cRMSY-1" value="Quels services ?" style="whiteSpace=wrap;html=1;rounded=0;shadow=1;fontSize=25;align=center;fillColor=#dae8fc;strokeColor=#6c8ebf;fontStyle=1" vertex="1" parent="1">
          <mxGeometry x="925" y="320" width="270" height="80" as="geometry" />
        </mxCell>
        <mxCell id="fTo_FPvQdEcXw-2cRMSY-2" value="" style="strokeWidth=1;shadow=0;dashed=0;align=center;html=1;shape=mxgraph.mockup.containers.browserWindow;rSize=0;strokeColor=#666666;strokeColor2=#008cff;strokeColor3=#c4c4c4;mainText=,;recursiveResize=0;" vertex="1" parent="1">
          <mxGeometry x="360" y="300" width="480" height="430" as="geometry" />
        </mxCell>
        <mxCell id="fTo_FPvQdEcXw-2cRMSY-3" value="Page 1" style="strokeWidth=1;shadow=0;dashed=0;align=center;html=1;shape=mxgraph.mockup.containers.anchor;fontSize=17;fontColor=#666666;align=left;" vertex="1" parent="fTo_FPvQdEcXw-2cRMSY-2">
          <mxGeometry x="60" y="12" width="110" height="26" as="geometry" />
        </mxCell>
        <mxCell id="fTo_FPvQdEcXw-2cRMSY-4" value="https://www.draw.io" style="strokeWidth=1;shadow=0;dashed=0;align=center;html=1;shape=mxgraph.mockup.containers.anchor;rSize=0;fontSize=17;fontColor=#666666;align=left;" vertex="1" parent="fTo_FPvQdEcXw-2cRMSY-2">
          <mxGeometry x="130" y="60" width="250" height="26" as="geometry" />
        </mxCell>
        <mxCell id="fTo_FPvQdEcXw-2cRMSY-5" value="Create Post" style="text;html=1;strokeColor=none;fillColor=none;align=left;verticalAlign=middle;whiteSpace=wrap;rounded=0;fontSize=28;" vertex="1" parent="fTo_FPvQdEcXw-2cRMSY-2">
          <mxGeometry x="20" y="120" width="200" height="20" as="geometry" />
        </mxCell>
        <mxCell id="fTo_FPvQdEcXw-2cRMSY-6" value="" style="whiteSpace=wrap;html=1;fontSize=28;align=left;" vertex="1" parent="fTo_FPvQdEcXw-2cRMSY-2">
          <mxGeometry x="40" y="175" width="180" height="25" as="geometry" />
        </mxCell>
        <mxCell id="fTo_FPvQdEcXw-2cRMSY-7" value="Title" style="text;html=1;strokeColor=none;fillColor=none;align=left;verticalAlign=middle;whiteSpace=wrap;rounded=0;fontSize=18;" vertex="1" parent="fTo_FPvQdEcXw-2cRMSY-2">
          <mxGeometry x="40" y="150" width="200" height="20" as="geometry" />
        </mxCell>
        <mxCell id="fTo_FPvQdEcXw-2cRMSY-8" value="Submit" style="whiteSpace=wrap;html=1;fontSize=16;align=center;rounded=1;" vertex="1" parent="fTo_FPvQdEcXw-2cRMSY-2">
          <mxGeometry x="40" y="210" width="80" height="25" as="geometry" />
        </mxCell>
        <mxCell id="fTo_FPvQdEcXw-2cRMSY-9" value="" style="endArrow=none;html=1;fontSize=16;" edge="1" parent="fTo_FPvQdEcXw-2cRMSY-2">
          <mxGeometry width="50" height="50" relative="1" as="geometry">
            <mxPoint x="20" y="240" as="sourcePoint" />
            <mxPoint x="440" y="240" as="targetPoint" />
          </mxGeometry>
        </mxCell>
        <mxCell id="fTo_FPvQdEcXw-2cRMSY-10" value="" style="rounded=0;whiteSpace=wrap;html=1;fontSize=16;align=center;fillColor=#dae8fc;strokeColor=#6c8ebf;" vertex="1" parent="fTo_FPvQdEcXw-2cRMSY-2">
          <mxGeometry x="25" y="250" width="215" height="170" as="geometry" />
        </mxCell>
        <mxCell id="fTo_FPvQdEcXw-2cRMSY-11" value="My Post" style="text;html=1;strokeColor=none;fillColor=none;align=left;verticalAlign=middle;whiteSpace=wrap;rounded=0;fontSize=28;" vertex="1" parent="fTo_FPvQdEcXw-2cRMSY-2">
          <mxGeometry x="30" y="260" width="200" height="20" as="geometry" />
        </mxCell>
        <mxCell id="fTo_FPvQdEcXw-2cRMSY-12" value="&lt;i&gt;1 comments&lt;/i&gt;" style="text;html=1;strokeColor=none;fillColor=none;align=center;verticalAlign=middle;whiteSpace=wrap;rounded=0;fontSize=16;" vertex="1" parent="fTo_FPvQdEcXw-2cRMSY-2">
          <mxGeometry x="30" y="285" width="100" height="20" as="geometry" />
        </mxCell>
        <mxCell id="fTo_FPvQdEcXw-2cRMSY-13" value="&lt;ul&gt;&lt;li&gt;Im a comment!&lt;/li&gt;&lt;/ul&gt;" style="text;html=1;strokeColor=none;fillColor=none;align=left;verticalAlign=middle;whiteSpace=wrap;rounded=0;fontSize=18;" vertex="1" parent="fTo_FPvQdEcXw-2cRMSY-2">
          <mxGeometry x="40" y="310" width="200" height="20" as="geometry" />
        </mxCell>
        <mxCell id="fTo_FPvQdEcXw-2cRMSY-14" value="" style="whiteSpace=wrap;html=1;fontSize=28;align=left;" vertex="1" parent="fTo_FPvQdEcXw-2cRMSY-2">
          <mxGeometry x="32.5" y="359" width="180" height="25" as="geometry" />
        </mxCell>
        <mxCell id="fTo_FPvQdEcXw-2cRMSY-15" value="Comment" style="text;html=1;strokeColor=none;fillColor=none;align=left;verticalAlign=middle;whiteSpace=wrap;rounded=0;fontSize=15;" vertex="1" parent="fTo_FPvQdEcXw-2cRMSY-2">
          <mxGeometry x="32.5" y="340" width="200" height="20" as="geometry" />
        </mxCell>
        <mxCell id="fTo_FPvQdEcXw-2cRMSY-16" value="Submit" style="whiteSpace=wrap;html=1;fontSize=16;align=center;rounded=1;" vertex="1" parent="fTo_FPvQdEcXw-2cRMSY-2">
          <mxGeometry x="32.5" y="388" width="80" height="25" as="geometry" />
        </mxCell>
        <mxCell id="fTo_FPvQdEcXw-2cRMSY-17" value="" style="rounded=0;whiteSpace=wrap;html=1;fontSize=16;align=center;fillColor=#dae8fc;strokeColor=#6c8ebf;" vertex="1" parent="fTo_FPvQdEcXw-2cRMSY-2">
          <mxGeometry x="250" y="250" width="215" height="170" as="geometry" />
        </mxCell>
        <mxCell id="fTo_FPvQdEcXw-2cRMSY-18" value="Post #2" style="text;html=1;strokeColor=none;fillColor=none;align=left;verticalAlign=middle;whiteSpace=wrap;rounded=0;fontSize=28;" vertex="1" parent="fTo_FPvQdEcXw-2cRMSY-2">
          <mxGeometry x="255" y="260" width="200" height="20" as="geometry" />
        </mxCell>
        <mxCell id="fTo_FPvQdEcXw-2cRMSY-19" value="&lt;i&gt;1 comments&lt;/i&gt;" style="text;html=1;strokeColor=none;fillColor=none;align=center;verticalAlign=middle;whiteSpace=wrap;rounded=0;fontSize=16;" vertex="1" parent="fTo_FPvQdEcXw-2cRMSY-2">
          <mxGeometry x="255" y="285" width="100" height="20" as="geometry" />
        </mxCell>
        <mxCell id="fTo_FPvQdEcXw-2cRMSY-20" value="&lt;ul&gt;&lt;li&gt;Im a comment!&lt;/li&gt;&lt;/ul&gt;" style="text;html=1;strokeColor=none;fillColor=none;align=left;verticalAlign=middle;whiteSpace=wrap;rounded=0;fontSize=18;" vertex="1" parent="fTo_FPvQdEcXw-2cRMSY-2">
          <mxGeometry x="265" y="310" width="165" height="20" as="geometry" />
        </mxCell>
        <mxCell id="fTo_FPvQdEcXw-2cRMSY-21" value="" style="whiteSpace=wrap;html=1;fontSize=28;align=left;" vertex="1" parent="fTo_FPvQdEcXw-2cRMSY-2">
          <mxGeometry x="257.5" y="359" width="180" height="25" as="geometry" />
        </mxCell>
        <mxCell id="fTo_FPvQdEcXw-2cRMSY-22" value="Comment" style="text;html=1;strokeColor=none;fillColor=none;align=left;verticalAlign=middle;whiteSpace=wrap;rounded=0;fontSize=15;" vertex="1" parent="fTo_FPvQdEcXw-2cRMSY-2">
          <mxGeometry x="257.5" y="340" width="200" height="20" as="geometry" />
        </mxCell>
        <mxCell id="fTo_FPvQdEcXw-2cRMSY-23" value="Submit" style="whiteSpace=wrap;html=1;fontSize=16;align=center;rounded=1;" vertex="1" parent="fTo_FPvQdEcXw-2cRMSY-2">
          <mxGeometry x="257.5" y="388" width="80" height="25" as="geometry" />
        </mxCell>
        <mxCell id="fTo_FPvQdEcXw-2cRMSY-24" style="edgeStyle=orthogonalEdgeStyle;rounded=0;orthogonalLoop=1;jettySize=auto;html=1;exitX=0;exitY=0.5;exitDx=0;exitDy=0;entryX=1.002;entryY=0.122;entryDx=0;entryDy=0;entryPerimeter=0;fontSize=19;" edge="1" parent="1" source="fTo_FPvQdEcXw-2cRMSY-25" target="fTo_FPvQdEcXw-2cRMSY-17">
          <mxGeometry relative="1" as="geometry" />
        </mxCell>
        <mxCell id="fTo_FPvQdEcXw-2cRMSY-25" value="Posts" style="whiteSpace=wrap;html=1;rounded=0;shadow=1;fontSize=25;align=center;fillColor=#ffe6cc;strokeColor=#d79b00;fontStyle=1" vertex="1" parent="1">
          <mxGeometry x="940" y="490" width="240" height="80" as="geometry" />
        </mxCell>
        <mxCell id="fTo_FPvQdEcXw-2cRMSY-26" style="edgeStyle=orthogonalEdgeStyle;rounded=0;orthogonalLoop=1;jettySize=auto;html=1;exitX=0;exitY=0.5;exitDx=0;exitDy=0;fontSize=19;" edge="1" parent="1" source="fTo_FPvQdEcXw-2cRMSY-27" target="fTo_FPvQdEcXw-2cRMSY-20">
          <mxGeometry relative="1" as="geometry" />
        </mxCell>
        <mxCell id="fTo_FPvQdEcXw-2cRMSY-27" value="Comments" style="whiteSpace=wrap;html=1;rounded=0;shadow=1;fontSize=25;align=center;fillColor=#ffe6cc;strokeColor=#d79b00;fontStyle=1" vertex="1" parent="1">
          <mxGeometry x="940" y="590" width="240" height="80" as="geometry" />
        </mxCell>
      </root>
    </mxGraphModel>
  </diagram>
  <diagram id="op6xaOsLCT6L0dFKI6DM" name="Page-5">
    <mxGraphModel dx="1422" dy="752" grid="1" gridSize="10" guides="1" tooltips="1" connect="1" arrows="1" fold="1" page="1" pageScale="1" pageWidth="827" pageHeight="1169" math="0" shadow="0">
      <root>
        <mxCell id="0" />
        <mxCell id="1" parent="0" />
        <mxCell id="Yd5VI4F1_qPKhxkOA5JS-10" style="edgeStyle=orthogonalEdgeStyle;rounded=0;orthogonalLoop=1;jettySize=auto;html=1;exitX=1;exitY=0.5;exitDx=0;exitDy=0;fontSize=19;" edge="1" parent="1" source="Yd5VI4F1_qPKhxkOA5JS-12" target="Yd5VI4F1_qPKhxkOA5JS-15">
          <mxGeometry relative="1" as="geometry" />
        </mxCell>
        <mxCell id="Yd5VI4F1_qPKhxkOA5JS-11" style="edgeStyle=orthogonalEdgeStyle;rounded=0;orthogonalLoop=1;jettySize=auto;html=1;exitX=1;exitY=0.5;exitDx=0;exitDy=0;entryX=0;entryY=0.5;entryDx=0;entryDy=0;fontSize=19;" edge="1" parent="1" source="Yd5VI4F1_qPKhxkOA5JS-12" target="Yd5VI4F1_qPKhxkOA5JS-16">
          <mxGeometry relative="1" as="geometry" />
        </mxCell>
        <mxCell id="Yd5VI4F1_qPKhxkOA5JS-12" value="Posts" style="whiteSpace=wrap;html=1;rounded=0;shadow=1;fontSize=25;align=center;fillColor=#ffe6cc;strokeColor=#d79b00;fontStyle=1" vertex="1" parent="1">
          <mxGeometry x="530" y="190" width="240" height="80" as="geometry" />
        </mxCell>
        <mxCell id="Yd5VI4F1_qPKhxkOA5JS-13" style="edgeStyle=orthogonalEdgeStyle;rounded=0;orthogonalLoop=1;jettySize=auto;html=1;exitX=1;exitY=0.5;exitDx=0;exitDy=0;fontSize=19;" edge="1" parent="1" source="Yd5VI4F1_qPKhxkOA5JS-14" target="Yd5VI4F1_qPKhxkOA5JS-18">
          <mxGeometry relative="1" as="geometry" />
        </mxCell>
        <mxCell id="Yd5VI4F1_qPKhxkOA5JS-14" value="Comments" style="whiteSpace=wrap;html=1;rounded=0;shadow=1;fontSize=25;align=center;fillColor=#ffe6cc;strokeColor=#d79b00;fontStyle=1" vertex="1" parent="1">
          <mxGeometry x="530" y="550" width="240" height="80" as="geometry" />
        </mxCell>
        <mxCell id="Yd5VI4F1_qPKhxkOA5JS-15" value="List all Posts" style="whiteSpace=wrap;html=1;rounded=0;shadow=1;fontSize=25;align=center;fontStyle=0" vertex="1" parent="1">
          <mxGeometry x="840" y="240" width="240" height="60" as="geometry" />
        </mxCell>
        <mxCell id="Yd5VI4F1_qPKhxkOA5JS-16" value="Create a Post" style="whiteSpace=wrap;html=1;rounded=0;shadow=1;fontSize=25;align=center;fontStyle=0" vertex="1" parent="1">
          <mxGeometry x="840" y="160" width="240" height="60" as="geometry" />
        </mxCell>
        <mxCell id="Yd5VI4F1_qPKhxkOA5JS-17" style="edgeStyle=orthogonalEdgeStyle;rounded=0;orthogonalLoop=1;jettySize=auto;html=1;exitX=1;exitY=0.5;exitDx=0;exitDy=0;entryX=0;entryY=0.5;entryDx=0;entryDy=0;fontSize=19;" edge="1" parent="1" target="Yd5VI4F1_qPKhxkOA5JS-19">
          <mxGeometry relative="1" as="geometry">
            <mxPoint x="770" y="590" as="sourcePoint" />
          </mxGeometry>
        </mxCell>
        <mxCell id="Yd5VI4F1_qPKhxkOA5JS-18" value="List all comments" style="whiteSpace=wrap;html=1;rounded=0;shadow=1;fontSize=25;align=center;fontStyle=0" vertex="1" parent="1">
          <mxGeometry x="840" y="600" width="240" height="60" as="geometry" />
        </mxCell>
        <mxCell id="Yd5VI4F1_qPKhxkOA5JS-19" value="Create a Comment" style="whiteSpace=wrap;html=1;rounded=0;shadow=1;fontSize=25;align=center;fontStyle=0" vertex="1" parent="1">
          <mxGeometry x="840" y="520" width="240" height="60" as="geometry" />
        </mxCell>
        <mxCell id="-w4ZEzsxdB75AKNNi9z4-1" value="Posts Service" style="whiteSpace=wrap;html=1;rounded=0;shadow=1;fontSize=25;align=center;fillColor=#ffe6cc;strokeColor=#d79b00;fontStyle=1" vertex="1" parent="1">
          <mxGeometry x="1140" y="110" width="710" height="60" as="geometry" />
        </mxCell>
        <mxCell id="-w4ZEzsxdB75AKNNi9z4-2" value="Path" style="rounded=0;whiteSpace=wrap;html=1;shadow=1;fontSize=21;align=center;fillColor=#dae8fc;strokeColor=#6c8ebf;" vertex="1" parent="1">
          <mxGeometry x="1140" y="180" width="120" height="30" as="geometry" />
        </mxCell>
        <mxCell id="-w4ZEzsxdB75AKNNi9z4-3" value="Method" style="rounded=0;whiteSpace=wrap;html=1;shadow=1;fontSize=21;align=center;fillColor=#dae8fc;strokeColor=#6c8ebf;" vertex="1" parent="1">
          <mxGeometry x="1270" y="180" width="120" height="30" as="geometry" />
        </mxCell>
        <mxCell id="-w4ZEzsxdB75AKNNi9z4-4" value="Body?" style="rounded=0;whiteSpace=wrap;html=1;shadow=1;fontSize=21;align=center;fillColor=#dae8fc;strokeColor=#6c8ebf;" vertex="1" parent="1">
          <mxGeometry x="1400" y="180" width="220" height="30" as="geometry" />
        </mxCell>
        <mxCell id="-w4ZEzsxdB75AKNNi9z4-5" value="Goal" style="rounded=0;whiteSpace=wrap;html=1;shadow=1;fontSize=21;align=center;fillColor=#dae8fc;strokeColor=#6c8ebf;" vertex="1" parent="1">
          <mxGeometry x="1630" y="180" width="220" height="30" as="geometry" />
        </mxCell>
        <mxCell id="-w4ZEzsxdB75AKNNi9z4-6" value="/posts" style="rounded=0;whiteSpace=wrap;html=1;shadow=1;fontSize=21;align=center;" vertex="1" parent="1">
          <mxGeometry x="1140" y="230" width="120" height="50" as="geometry" />
        </mxCell>
        <mxCell id="-w4ZEzsxdB75AKNNi9z4-7" value="POST" style="rounded=0;whiteSpace=wrap;html=1;shadow=1;fontSize=21;align=center;" vertex="1" parent="1">
          <mxGeometry x="1270" y="230" width="120" height="50" as="geometry" />
        </mxCell>
        <mxCell id="-w4ZEzsxdB75AKNNi9z4-8" value="{ title: string }" style="rounded=0;whiteSpace=wrap;html=1;shadow=1;fontSize=21;align=center;" vertex="1" parent="1">
          <mxGeometry x="1400" y="230" width="220" height="50" as="geometry" />
        </mxCell>
        <mxCell id="-w4ZEzsxdB75AKNNi9z4-9" value="Create a new post" style="rounded=0;whiteSpace=wrap;html=1;shadow=1;fontSize=21;align=center;" vertex="1" parent="1">
          <mxGeometry x="1630" y="230" width="220" height="50" as="geometry" />
        </mxCell>
        <mxCell id="-w4ZEzsxdB75AKNNi9z4-10" value="/posts" style="rounded=0;whiteSpace=wrap;html=1;shadow=1;fontSize=21;align=center;" vertex="1" parent="1">
          <mxGeometry x="1140" y="300" width="120" height="50" as="geometry" />
        </mxCell>
        <mxCell id="-w4ZEzsxdB75AKNNi9z4-11" value="GET" style="rounded=0;whiteSpace=wrap;html=1;shadow=1;fontSize=21;align=center;" vertex="1" parent="1">
          <mxGeometry x="1270" y="300" width="120" height="50" as="geometry" />
        </mxCell>
        <mxCell id="-w4ZEzsxdB75AKNNi9z4-12" value="-" style="rounded=0;whiteSpace=wrap;html=1;shadow=1;fontSize=21;align=center;" vertex="1" parent="1">
          <mxGeometry x="1400" y="300" width="220" height="50" as="geometry" />
        </mxCell>
        <mxCell id="-w4ZEzsxdB75AKNNi9z4-13" value="Retrieve all posts" style="rounded=0;whiteSpace=wrap;html=1;shadow=1;fontSize=21;align=center;" vertex="1" parent="1">
          <mxGeometry x="1630" y="300" width="220" height="50" as="geometry" />
        </mxCell>
        <mxCell id="-w4ZEzsxdB75AKNNi9z4-14" value="Comments Service" style="whiteSpace=wrap;html=1;rounded=0;shadow=1;fontSize=25;align=center;fillColor=#d5e8d4;strokeColor=#82b366;fontStyle=1" vertex="1" parent="1">
          <mxGeometry x="1140" y="465" width="810" height="60" as="geometry" />
        </mxCell>
        <mxCell id="-w4ZEzsxdB75AKNNi9z4-15" value="Path" style="rounded=0;whiteSpace=wrap;html=1;shadow=1;fontSize=21;align=center;fillColor=#dae8fc;strokeColor=#6c8ebf;" vertex="1" parent="1">
          <mxGeometry x="1140" y="535" width="200" height="30" as="geometry" />
        </mxCell>
        <mxCell id="-w4ZEzsxdB75AKNNi9z4-16" value="Method" style="rounded=0;whiteSpace=wrap;html=1;shadow=1;fontSize=21;align=center;fillColor=#dae8fc;strokeColor=#6c8ebf;" vertex="1" parent="1">
          <mxGeometry x="1350" y="535" width="120" height="30" as="geometry" />
        </mxCell>
        <mxCell id="-w4ZEzsxdB75AKNNi9z4-17" value="Body?" style="rounded=0;whiteSpace=wrap;html=1;shadow=1;fontSize=21;align=center;fillColor=#dae8fc;strokeColor=#6c8ebf;" vertex="1" parent="1">
          <mxGeometry x="1480" y="535" width="220" height="30" as="geometry" />
        </mxCell>
        <mxCell id="-w4ZEzsxdB75AKNNi9z4-18" value="Goal" style="rounded=0;whiteSpace=wrap;html=1;shadow=1;fontSize=21;align=center;fillColor=#dae8fc;strokeColor=#6c8ebf;" vertex="1" parent="1">
          <mxGeometry x="1710" y="535" width="240" height="30" as="geometry" />
        </mxCell>
        <mxCell id="-w4ZEzsxdB75AKNNi9z4-19" value="/posts/:id/comments" style="rounded=0;whiteSpace=wrap;html=1;shadow=1;fontSize=21;align=center;" vertex="1" parent="1">
          <mxGeometry x="1140" y="585" width="200" height="50" as="geometry" />
        </mxCell>
        <mxCell id="-w4ZEzsxdB75AKNNi9z4-20" value="POST" style="rounded=0;whiteSpace=wrap;html=1;shadow=1;fontSize=21;align=center;" vertex="1" parent="1">
          <mxGeometry x="1350" y="585" width="120" height="50" as="geometry" />
        </mxCell>
        <mxCell id="-w4ZEzsxdB75AKNNi9z4-21" value="{ content: string }" style="rounded=0;whiteSpace=wrap;html=1;shadow=1;fontSize=21;align=center;" vertex="1" parent="1">
          <mxGeometry x="1480" y="585" width="220" height="50" as="geometry" />
        </mxCell>
        <mxCell id="-w4ZEzsxdB75AKNNi9z4-22" value="Create a comment associated with the given post ID" style="rounded=0;whiteSpace=wrap;html=1;shadow=1;fontSize=16;align=center;" vertex="1" parent="1">
          <mxGeometry x="1710" y="585" width="240" height="50" as="geometry" />
        </mxCell>
        <mxCell id="-w4ZEzsxdB75AKNNi9z4-23" value="/posts/:id/comments" style="rounded=0;whiteSpace=wrap;html=1;shadow=1;fontSize=21;align=center;" vertex="1" parent="1">
          <mxGeometry x="1140" y="655" width="200" height="50" as="geometry" />
        </mxCell>
        <mxCell id="-w4ZEzsxdB75AKNNi9z4-24" value="GET" style="rounded=0;whiteSpace=wrap;html=1;shadow=1;fontSize=21;align=center;" vertex="1" parent="1">
          <mxGeometry x="1350" y="655" width="120" height="50" as="geometry" />
        </mxCell>
        <mxCell id="-w4ZEzsxdB75AKNNi9z4-25" value="-" style="rounded=0;whiteSpace=wrap;html=1;shadow=1;fontSize=21;align=center;" vertex="1" parent="1">
          <mxGeometry x="1480" y="655" width="220" height="50" as="geometry" />
        </mxCell>
        <mxCell id="-w4ZEzsxdB75AKNNi9z4-26" value="Retrieve all comments associated with the given post ID" style="rounded=0;whiteSpace=wrap;html=1;shadow=1;fontSize=16;align=center;" vertex="1" parent="1">
          <mxGeometry x="1710" y="655" width="240" height="50" as="geometry" />
        </mxCell>
      </root>
    </mxGraphModel>
  </diagram>
  <diagram id="uj46xHoLHZRE21-CTrJ5" name="Page-6">
    <mxGraphModel dx="1422" dy="752" grid="1" gridSize="10" guides="1" tooltips="1" connect="1" arrows="1" fold="1" page="1" pageScale="1" pageWidth="827" pageHeight="1169" math="0" shadow="0">
      <root>
        <mxCell id="0" />
        <mxCell id="1" parent="0" />
        <mxCell id="ySHpnWjfGIeErypFWuXb-1" value="&lt;div&gt;&lt;h2&gt;Création du serveur Express&lt;/h2&gt;&lt;/div&gt;" style="rounded=0;whiteSpace=wrap;html=1;shadow=1;fontSize=14;strokeColor=none;fillColor=none;" vertex="1" parent="1">
          <mxGeometry x="280" y="150" width="300" height="60" as="geometry" />
        </mxCell>
      </root>
    </mxGraphModel>
  </diagram>
</mxfile>
